<svg version="1.1" id="Layer_1" xmlns="http://www.w3.org/2000/svg" xmlns:xlink="http://www.w3.org/1999/xlink" x="0px" y="0px"
	 width="100%" viewBox="0 0 1367 508" enable-background="new 0 0 1367 508" xml:space="preserve">
<path fill="#FFFFFF" opacity="1.000000" stroke="none" 
	d="
M1051.000000,509.000000 
	C700.666687,509.000000 350.833374,509.000000 1.000047,509.000000 
	C1.000031,339.666687 1.000031,170.333389 1.000016,1.000070 
	C456.666626,1.000046 912.333252,1.000046 1368.000000,1.000023 
	C1368.000000,170.333267 1368.000000,339.666534 1368.000000,508.999878 
	C1262.500000,509.000000 1157.000000,509.000000 1051.000000,509.000000 
M615.500000,459.000000 
	C635.843445,459.000000 656.186951,458.998688 676.530396,459.001282 
	C680.058960,459.001709 682.905579,458.026581 684.027527,454.199371 
	C685.118225,450.478943 683.344238,448.600586 680.323364,446.628845 
	C665.060608,436.666870 649.968323,426.443756 634.813721,416.316101 
	C572.322388,374.553772 509.858978,332.749542 447.330688,291.042633 
	C373.683655,241.919373 299.967407,192.899750 226.370667,143.701370 
	C224.439636,142.410492 222.250824,139.439972 222.450012,137.483658 
	C222.799469,134.051712 226.331604,133.964401 229.397888,133.970917 
	C253.896545,134.022995 278.395691,133.943527 302.893524,134.094101 
	C305.151520,134.107986 307.703552,134.981934 309.607697,136.234116 
	C326.049957,147.046616 342.357117,158.064316 358.737885,168.970764 
	C426.250458,213.921295 493.800934,258.814972 561.287842,303.804016 
	C637.505981,354.613556 713.663086,405.514526 789.900208,456.295532 
	C791.961121,457.668274 794.623657,458.839600 797.026794,458.881287 
	C811.021851,459.123688 825.023926,459.077179 839.022278,458.965179 
	C845.377197,458.914337 846.999573,457.053650 846.999634,450.681549 
	C847.000183,361.186066 846.977051,271.690552 847.117554,182.195267 
	C847.121521,179.672073 848.207275,176.166183 850.018616,174.949417 
	C851.406189,174.017273 855.098389,175.417252 857.145935,176.739532 
	C873.798706,187.493881 890.353943,198.401627 906.848328,209.398468 
	C985.615417,261.912750 1064.365601,314.452545 1143.020752,367.134033 
	C1144.627075,368.209930 1145.913452,371.243622 1145.639648,373.113708 
	C1145.463989,374.313599 1142.154907,375.863464 1140.240234,375.877472 
	C1115.076172,376.061615 1089.910156,376.029907 1064.745117,375.930939 
	C1063.114624,375.924530 1061.269775,375.255371 1059.891235,374.341461 
	C1015.137756,344.674835 970.422363,314.950897 925.720337,285.206787 
	C916.455017,279.041779 907.401489,272.542725 897.942444,266.695801 
	C895.612915,265.255859 891.917236,265.083801 889.167847,265.715057 
	C888.017822,265.979095 887.102173,269.853668 887.090698,272.091858 
	C886.950989,299.256439 887.073364,326.422424 886.914062,353.586761 
	C886.892334,357.291382 888.119019,359.621063 891.094727,361.601837 
	C937.277893,392.343475 983.433350,423.126862 1029.569580,453.938873 
	C1034.517578,457.243347 1039.539673,459.146332 1045.802612,459.133301 
	C1138.630859,458.940094 1231.459717,458.999969 1324.288330,458.999939 
	C1325.454956,458.999939 1326.647827,459.157867 1327.783447,458.970093 
	C1331.456055,458.362793 1334.096924,456.996460 1334.059937,452.432281 
	C1333.913696,434.434387 1334.073730,416.433838 1333.886353,398.436676 
	C1333.867554,396.633667 1332.751343,394.123535 1331.322754,393.160431 
	C1305.380249,375.670593 1279.314941,358.362671 1253.269165,341.026062 
	C1185.749878,296.083801 1118.200806,251.185944 1050.712891,206.196579 
	C974.494324,155.387161 898.337097,104.485680 822.099670,53.704529 
	C820.038757,52.331779 817.376343,51.160385 814.973206,51.118759 
	C800.978149,50.876343 786.976074,50.922829 772.977722,51.034863 
	C766.622803,51.085724 765.000427,52.946354 765.000366,59.318436 
	C764.999817,148.813919 765.023010,238.309418 764.882507,327.804688 
	C764.878540,330.327850 763.792786,333.833801 761.981567,335.050598 
	C760.593994,335.982727 756.876953,334.605316 754.853821,333.263428 
	C708.758179,302.690002 662.755127,271.977142 616.730957,241.295990 
	C524.817871,180.023804 432.909210,118.744942 340.970978,57.510487 
	C335.617004,53.944546 330.458405,50.789375 323.209595,50.811661 
	C230.381836,51.097004 137.552887,50.999977 44.724243,51.000256 
	C43.390995,51.000259 42.033409,50.841160 40.728958,51.035995 
	C36.447372,51.675510 33.786777,53.291016 33.883049,58.573654 
	C34.195766,75.733749 33.856937,92.905670 34.162914,110.066017 
	C34.206024,112.483635 35.806282,115.810265 37.757332,117.120407 
	C89.703827,152.002930 141.811951,186.644592 193.849274,221.392044 
	C266.416534,269.848145 338.932404,318.381134 411.561920,366.743622 
	C414.164124,368.476379 416.006134,370.402222 414.742737,372.900635 
	C413.929199,374.509491 410.921356,375.854706 408.885468,375.870850 
	C383.888336,376.069183 358.888947,376.028351 333.890564,375.935486 
	C332.244476,375.929382 330.362701,375.357208 328.991638,374.445312 
	C234.196365,311.400146 139.438644,248.298538 44.704575,185.161453 
	C42.298309,183.557755 40.339272,182.324463 37.183418,183.862534 
	C33.849380,185.487442 33.979702,187.975510 33.982746,190.832703 
	C34.011673,217.997955 34.070377,245.163666 33.914829,272.328064 
	C33.894375,275.899628 35.047440,278.101929 37.936821,280.027893 
	C123.686562,337.186584 209.393051,394.410156 295.141815,451.570343 
	C301.138672,455.567810 306.873138,459.231384 315.015747,459.205597 
	C414.843079,458.889709 514.671692,459.000000 615.500000,459.000000 
M457.973267,72.468964 
	C468.525574,79.634537 479.022827,86.882767 489.639191,93.952179 
	C554.191467,136.937546 618.775085,179.876038 683.337158,222.846802 
	C693.540894,229.638184 703.566650,236.708969 713.955505,243.201233 
	C716.292480,244.661652 719.945618,244.919403 722.711975,244.354828 
	C723.855469,244.121460 724.891724,240.269012 724.903809,238.056717 
	C725.051453,210.892914 724.929993,183.727661 725.083008,156.563934 
	C725.103638,152.907410 723.983887,150.476791 721.014038,148.505173 
	C673.330505,116.849236 625.690735,85.127174 577.950623,53.556957 
	C575.680603,52.055779 572.574158,51.116558 569.852722,51.106121 
	C529.689758,50.952110 489.525970,50.990417 449.362396,51.035717 
	C447.788452,51.037491 446.163574,51.399967 444.650818,51.875546 
	C439.435913,53.514980 438.095245,58.188354 442.262390,61.587551 
	C446.990967,65.444687 452.305878,68.583038 457.973267,72.468964 
z"/>
<path fill="#040707" opacity="1.000000" stroke="none" 
	d="
M615.000000,459.000000 
	C514.671692,459.000000 414.843079,458.889709 315.015747,459.205597 
	C306.873138,459.231384 301.138672,455.567810 295.141815,451.570343 
	C209.393051,394.410156 123.686562,337.186584 37.936821,280.027893 
	C35.047440,278.101929 33.894375,275.899628 33.914829,272.328064 
	C34.070377,245.163666 34.011673,217.997955 33.982746,190.832703 
	C33.979702,187.975510 33.849380,185.487442 37.183418,183.862534 
	C40.339272,182.324463 42.298309,183.557755 44.704575,185.161453 
	C139.438644,248.298538 234.196365,311.400146 328.991638,374.445312 
	C330.362701,375.357208 332.244476,375.929382 333.890564,375.935486 
	C358.888947,376.028351 383.888336,376.069183 408.885468,375.870850 
	C410.921356,375.854706 413.929199,374.509491 414.742737,372.900635 
	C416.006134,370.402222 414.164124,368.476379 411.561920,366.743622 
	C338.932404,318.381134 266.416534,269.848145 193.849274,221.392044 
	C141.811951,186.644592 89.703827,152.002930 37.757332,117.120407 
	C35.806282,115.810265 34.206024,112.483635 34.162914,110.066017 
	C33.856937,92.905670 34.195766,75.733749 33.883049,58.573654 
	C33.786777,53.291016 36.447372,51.675510 40.728958,51.035995 
	C42.033409,50.841160 43.390995,51.000259 44.724243,51.000256 
	C137.552887,50.999977 230.381836,51.097004 323.209595,50.811661 
	C330.458405,50.789375 335.617004,53.944546 340.970978,57.510487 
	C432.909210,118.744942 524.817871,180.023804 616.730957,241.295990 
	C662.755127,271.977142 708.758179,302.690002 754.853821,333.263428 
	C756.876953,334.605316 760.593994,335.982727 761.981567,335.050598 
	C763.792786,333.833801 764.878540,330.327850 764.882507,327.804688 
	C765.023010,238.309418 764.999817,148.813919 765.000366,59.318436 
	C765.000427,52.946354 766.622803,51.085724 772.977722,51.034863 
	C786.976074,50.922829 800.978149,50.876343 814.973206,51.118759 
	C817.376343,51.160385 820.038757,52.331779 822.099670,53.704529 
	C898.337097,104.485680 974.494324,155.387161 1050.712891,206.196579 
	C1118.200806,251.185944 1185.749878,296.083801 1253.269165,341.026062 
	C1279.314941,358.362671 1305.380249,375.670593 1331.322754,393.160431 
	C1332.751343,394.123535 1333.867554,396.633667 1333.886353,398.436676 
	C1334.073730,416.433838 1333.913696,434.434387 1334.059937,452.432281 
	C1334.096924,456.996460 1331.456055,458.362793 1327.783447,458.970093 
	C1326.647827,459.157867 1325.454956,458.999939 1324.288330,458.999939 
	C1231.459717,458.999969 1138.630859,458.940094 1045.802612,459.133301 
	C1039.539673,459.146332 1034.517578,457.243347 1029.569580,453.938873 
	C983.433350,423.126862 937.277893,392.343475 891.094727,361.601837 
	C888.119019,359.621063 886.892334,357.291382 886.914062,353.586761 
	C887.073364,326.422424 886.950989,299.256439 887.090698,272.091858 
	C887.102173,269.853668 888.017822,265.979095 889.167847,265.715057 
	C891.917236,265.083801 895.612915,265.255859 897.942444,266.695801 
	C907.401489,272.542725 916.455017,279.041779 925.720337,285.206787 
	C970.422363,314.950897 1015.137756,344.674835 1059.891235,374.341461 
	C1061.269775,375.255371 1063.114624,375.924530 1064.745117,375.930939 
	C1089.910156,376.029907 1115.076172,376.061615 1140.240234,375.877472 
	C1142.154907,375.863464 1145.463989,374.313599 1145.639648,373.113708 
	C1145.913452,371.243622 1144.627075,368.209930 1143.020752,367.134033 
	C1064.365601,314.452545 985.615417,261.912750 906.848328,209.398468 
	C890.353943,198.401627 873.798706,187.493881 857.145935,176.739532 
	C855.098389,175.417252 851.406189,174.017273 850.018616,174.949417 
	C848.207275,176.166183 847.121521,179.672073 847.117554,182.195267 
	C846.977051,271.690552 847.000183,361.186066 846.999634,450.681549 
	C846.999573,457.053650 845.377197,458.914337 839.022278,458.965179 
	C825.023926,459.077179 811.021851,459.123688 797.026794,458.881287 
	C794.623657,458.839600 791.961121,457.668274 789.900208,456.295532 
	C713.663086,405.514526 637.505981,354.613556 561.287842,303.804016 
	C493.800934,258.814972 426.250458,213.921295 358.737885,168.970764 
	C342.357117,158.064316 326.049957,147.046616 309.607697,136.234116 
	C307.703552,134.981934 305.151520,134.107986 302.893524,134.094101 
	C278.395691,133.943527 253.896545,134.022995 229.397888,133.970917 
	C226.331604,133.964401 222.799469,134.051712 222.450012,137.483658 
	C222.250824,139.439972 224.439636,142.410492 226.370667,143.701370 
	C299.967407,192.899750 373.683655,241.919373 447.330688,291.042633 
	C509.858978,332.749542 572.322388,374.553772 634.813721,416.316101 
	C649.968323,426.443756 665.060608,436.666870 680.323364,446.628845 
	C683.344238,448.600586 685.118225,450.478943 684.027527,454.199371 
	C682.905579,458.026581 680.058960,459.001709 676.530396,459.001282 
	C656.186951,458.998688 635.843445,459.000000 615.000000,459.000000 
z"/>
<path fill="#040707" opacity="1.000000" stroke="none" 
	d="
M457.669556,72.251419 
	C452.305878,68.583038 446.990967,65.444687 442.262390,61.587551 
	C438.095245,58.188354 439.435913,53.514980 444.650818,51.875546 
	C446.163574,51.399967 447.788452,51.037491 449.362396,51.035717 
	C489.525970,50.990417 529.689758,50.952110 569.852722,51.106121 
	C572.574158,51.116558 575.680603,52.055779 577.950623,53.556957 
	C625.690735,85.127174 673.330505,116.849236 721.014038,148.505173 
	C723.983887,150.476791 725.103638,152.907410 725.083008,156.563934 
	C724.929993,183.727661 725.051453,210.892914 724.903809,238.056717 
	C724.891724,240.269012 723.855469,244.121460 722.711975,244.354828 
	C719.945618,244.919403 716.292480,244.661652 713.955505,243.201233 
	C703.566650,236.708969 693.540894,229.638184 683.337158,222.846802 
	C618.775085,179.876038 554.191467,136.937546 489.639191,93.952179 
	C479.022827,86.882767 468.525574,79.634537 457.669556,72.251419 
z"/>
</svg>