<?xml version="1.0" encoding="UTF-8"?>
<svg version="1.1" xmlns="http://www.w3.org/2000/svg" width="1367" height="508">
<path d="M0 0 C1.01325747 -0.00815804 2.02651494 -0.01631607 3.07047719 -0.02472132 C4.18698165 -0.02862968 5.30348611 -0.03253804 6.45382404 -0.03656483 C7.63749555 -0.04447491 8.82116706 -0.05238499 10.04070741 -0.06053478 C13.33230057 -0.0813094 16.62385782 -0.09753454 19.9154824 -0.11167514 C22.73766706 -0.12457811 25.55982579 -0.14113052 28.38199123 -0.1576524 C55.17063586 -0.31383886 81.95988322 -0.3887163 108.74889374 -0.44927216 C112.23877909 -0.45730053 115.72866407 -0.46546886 119.21854877 -0.47377491 C120.08591482 -0.47583251 120.95328086 -0.47789012 121.84693072 -0.48001007 C135.87499395 -0.51437651 149.90259797 -0.58698412 163.93041822 -0.67468252 C178.34501734 -0.76404918 192.75937914 -0.8152312 207.17424947 -0.83057433 C215.26256178 -0.84020633 223.35004845 -0.86674529 231.4380827 -0.93688488 C238.33207408 -0.99664537 245.22512998 -1.02199552 252.11937388 -1.00354602 C255.63194567 -0.99520583 259.14250362 -1.00251787 262.65474415 -1.05453205 C279.04524473 -1.25999764 290.2698138 -0.47257895 303.11527729 10.15098095 C304.79002452 11.28393178 306.47524718 12.40197031 308.18070698 13.48813915 C309.63474286 14.4732333 311.08689497 15.46111366 312.53715229 16.4517622 C314.21551845 17.58981143 315.89390474 18.72783098 317.57230854 19.8658247 C318.86322407 20.74343456 318.86322407 20.74343456 320.1802187 21.63877392 C336.07384427 32.43973387 352.05083447 43.10602114 368.11527729 53.65098095 C383.58577281 63.80861782 398.96722363 74.08822786 414.29252338 84.46348095 C427.83419484 93.62787192 441.44737333 102.67605445 455.11527729 111.65098095 C470.58534212 121.80928285 485.9672137 132.08822114 501.29252338 142.46348095 C514.83419484 151.62787192 528.44737333 160.67605445 542.11527729 169.65098095 C557.58534212 179.80928285 572.9672137 190.08822114 588.29252338 200.46348095 C602.73790513 210.23946218 617.27078326 219.87443173 631.85136127 229.44736767 C647.75736198 239.89399093 663.55929193 250.48834555 679.30668354 261.17246532 C683.39729308 263.94679158 687.49677767 266.70755103 691.6020937 269.46006298 C693.34739229 270.63433324 695.08900296 271.81409602 696.82767963 272.99814892 C699.53994165 274.84348224 702.26374234 276.67057367 704.99027729 278.49473095 C705.81680805 279.0627644 706.64333881 279.63079784 707.49491596 280.21604443 C708.27455708 280.73275707 709.05419819 281.24946972 709.85746479 281.78184032 C710.876227 282.46989758 710.876227 282.46989758 711.91557026 283.17185497 C714.73505396 284.4268538 717.05908124 284.2163168 720.11527729 284.15098095 C720.11560334 283.26080848 720.11560334 283.26080848 720.11593598 282.35265273 C720.12944232 247.20535643 720.16887667 212.0581828 720.24213291 176.91095899 C720.2509 172.69384754 720.25944975 168.47673569 720.26786518 164.25962353 C720.27038377 163.0002598 720.27038377 163.0002598 720.27295325 161.71545438 C720.29964667 148.10866994 720.30872 134.50192762 720.31131872 120.89511969 C720.31437467 106.94052299 720.33627975 92.9860484 720.37580186 79.03150684 C720.39960532 70.41590335 720.40858295 61.80054335 720.3987904 53.18491147 C720.39348791 47.28243851 720.40644049 41.38018439 720.43394019 35.47777375 C720.44927809 32.06872029 720.45638318 28.66015632 720.4418745 25.25108814 C720.43034969 21.56008691 720.4492245 17.87048301 720.47604084 14.17959118 C720.46003095 12.55266426 720.46003095 12.55266426 720.44369763 10.89287013 C720.48022919 8.21577266 720.54274424 5.76596415 721.11527729 3.15098095 C724.19511399 0.3703258 726.75107334 -0.22730765 730.83524799 -0.34828663 C732.19871105 -0.39636211 732.19871105 -0.39636211 733.58971882 -0.44540882 C734.56366093 -0.46129551 735.53760303 -0.4771822 736.54105854 -0.4935503 C737.56144718 -0.51302219 738.58183582 -0.53249409 739.63314533 -0.55255604 C741.79577693 -0.58524778 743.95855831 -0.60906388 746.12138081 -0.62465382 C749.38069981 -0.66099415 752.63303598 -0.76681952 755.89066792 -0.87440968 C769.11327234 -1.11489786 777.65800944 0.46125308 788.10950947 8.62104321 C791.00342193 10.82843025 794.03409402 12.80950931 797.06872272 14.81682873 C799.58254373 16.48182665 802.07918263 18.17001571 804.57230854 19.8658247 C821.33348334 31.26066194 838.17186073 42.52904857 855.11527729 53.65098095 C870.58577281 63.80861782 885.96722363 74.08822786 901.29252338 84.46348095 C914.83419484 93.62787192 928.44737333 102.67605445 942.11527729 111.65098095 C957.58534212 121.80928285 972.9672137 132.08822114 988.29252338 142.46348095 C1001.83419484 151.62787192 1015.44737333 160.67605445 1029.11527729 169.65098095 C1044.58534212 179.80928285 1059.9672137 190.08822114 1075.29252338 200.46348095 C1088.83419484 209.62787192 1102.44737333 218.67605445 1116.11527729 227.65098095 C1131.58534212 237.80928285 1146.9672137 248.08822114 1162.29252338 258.46348095 C1175.83419664 267.62787313 1189.44743639 276.67595576 1203.11527729 285.65098095 C1219.90007691 296.67322831 1236.58989413 307.828531 1253.21879292 319.0845747 C1254.04787159 319.64572979 1254.87695026 320.20688488 1255.73115253 320.78504467 C1257.36440981 321.890531 1258.99753029 322.99621947 1260.63050556 324.10212231 C1267.92092598 329.03337983 1275.24554948 333.91284447 1282.58181477 338.77559948 C1283.42244968 339.33396999 1284.2630846 339.89234051 1285.12919331 340.46763134 C1285.87604893 340.96259609 1286.62290455 341.45756084 1287.39239216 341.96752453 C1289.11527729 343.15098095 1289.11527729 343.15098095 1290.11527729 344.15098095 C1290.23016579 346.0369153 1290.27493557 347.92715736 1290.29227924 349.81650829 C1290.30511448 351.02801556 1290.31794971 352.23952282 1290.3311739 353.48774242 C1290.3422543 355.46733456 1290.3422543 355.46733456 1290.35355854 357.48691845 C1290.35763407 358.15524323 1290.36170959 358.823568 1290.36590862 359.51214504 C1290.3867847 363.04930598 1290.40107978 366.58642794 1290.41044331 370.1236372 C1290.42151242 373.78141961 1290.45591247 377.43859439 1290.49561501 381.09616184 C1290.52173391 383.90484801 1290.53013084 386.71338838 1290.53372478 389.52218533 C1290.54097739 391.52698696 1290.56743713 393.53168914 1290.59411335 395.53632641 C1290.59118778 396.75413799 1290.58826221 397.97194958 1290.58524799 399.22666454 C1290.59111423 400.30064495 1290.59698048 401.37462536 1290.60302448 402.48115063 C1290.11527729 405.15098095 1290.11527729 405.15098095 1288.39900082 406.79390097 C1285.71663603 408.38786955 1284.19017094 408.52855608 1281.08795357 408.534091 C1279.55860545 408.54767596 1279.55860545 408.54767596 1277.99836141 408.56153536 C1276.32081172 408.55354347 1276.32081172 408.55354347 1274.60937214 408.54539013 C1272.82517479 408.55452678 1272.82517479 408.55452678 1271.00493306 408.56384802 C1267.70191819 408.57763379 1264.39939966 408.57792429 1261.09639323 408.57247305 C1257.53453768 408.56980605 1253.97274611 408.58432867 1250.41091633 408.59656811 C1243.43135729 408.61764058 1236.45188128 408.62216184 1229.47229419 408.62038022 C1223.79787553 408.61907314 1218.1234828 408.622874 1212.44906902 408.63030529 C1210.81515716 408.63240448 1209.18124529 408.63450208 1207.54733342 408.63659811 C1206.73409433 408.63764164 1205.92085524 408.63868517 1205.08297255 408.63976032 C1189.69523889 408.6586711 1174.30755287 408.65761035 1158.9198124 408.65079099 C1144.84844375 408.64521884 1130.77725735 408.6660254 1116.70593128 408.69915146 C1102.25627693 408.73290386 1087.80670982 408.7480546 1073.35701531 408.74343443 C1065.24520828 408.74119079 1057.13356957 408.7464169 1049.02179623 408.77132702 C1042.11350019 408.79236058 1035.20546467 408.79591225 1028.29715786 408.77702743 C1024.77390202 408.7678808 1021.25113163 408.76669249 1017.72791386 408.78738308 C1013.90374272 408.80959198 1010.08029415 408.7928475 1006.25610065 408.77244091 C1005.1488878 408.78495876 1004.04167495 408.79747661 1002.9009102 408.81037378 C995.69729437 408.7280178 991.04191867 407.21210932 985.11527729 403.15098095 C984.37293364 402.67016363 983.63059 402.1893463 982.86575109 401.69395876 C980.67966296 400.27439418 978.52782014 398.81089014 976.37699604 397.33848095 C975.55560642 396.78116283 974.7342168 396.22384472 973.88793659 395.64963818 C972.11709435 394.44802734 970.34728268 393.24489657 968.57841206 392.04038525 C963.76769555 388.76567902 958.9478692 385.50446033 954.12699604 382.24473095 C953.13102406 381.57123608 952.13505207 380.8977412 951.10889912 380.20383739 C940.83394369 373.26709386 930.47995498 366.45261143 920.11527729 359.65098095 C903.02942938 348.43553903 886.04950053 337.07119584 869.13285542 325.60215282 C867.43828518 324.45423169 865.74362697 323.30644041 864.04887104 322.15879345 C863.25443592 321.62018688 862.4600008 321.08158031 861.64149189 320.52665234 C856.47620665 317.03607057 851.26046045 313.65996801 845.93583393 310.41611767 C844.11527729 309.15098095 844.11527729 309.15098095 843.11527729 307.15098095 C843.0114992 304.29346539 842.96847279 301.46013016 842.97001362 298.60215282 C842.9649757 297.27517124 842.9649757 297.27517124 842.95983601 295.92138195 C842.95031124 292.98748413 842.94838224 290.05364328 842.94730854 287.11973095 C842.94409743 285.08713793 842.94073348 283.05454515 842.93722248 281.02195263 C842.93122768 276.75815323 842.92938298 272.49437411 842.92997456 268.23057079 C842.93007629 262.75579362 842.91641371 257.28114581 842.89920235 251.80639935 C842.8881081 247.6080671 842.88605454 243.40976642 842.88658428 239.21142101 C842.88540067 237.19232264 842.88095769 235.17322354 842.87325191 233.15413952 C842.86350223 230.33593592 842.86630988 227.51801683 842.87235737 224.69980907 C842.86673786 223.85922451 842.86111835 223.01863995 842.85532856 222.15258312 C842.88696082 216.37929742 842.88696082 216.37929742 845.11527729 214.15098095 C851.86779613 213.14582274 855.58682926 215.81887042 860.91215229 219.4751997 C861.76130207 220.03959255 862.61045185 220.6039854 863.48533344 221.18548107 C866.28913625 223.054646 869.07694153 224.94633687 871.86527729 226.83848095 C873.84026074 228.16148191 875.81618822 229.48307463 877.79301167 230.8033247 C882.91567721 234.23067172 888.02497637 237.67736212 893.12968159 241.13138866 C896.87521856 243.66503968 900.62491461 246.19248968 904.37472248 248.71981335 C910.56722982 252.89349622 916.75788009 257.06988329 922.94218159 261.25571728 C937.43643706 271.0598744 952.02787929 280.71173418 966.66996479 290.29355907 C967.48918919 290.83264904 968.30841358 291.37173901 969.15246296 291.92716503 C970.86011679 293.04356092 972.5757936 294.14776654 974.29867268 295.24051952 C979.26850391 298.43488098 983.97402343 301.79127266 988.54803371 305.5227747 C1011.22523749 323.93597951 1029.04370035 327.36905244 1057.86723042 325.78855419 C1062.63698243 325.55507997 1067.40964946 325.46707334 1072.18363667 325.36191845 C1079.10017201 325.18924716 1086.01165463 324.96895266 1092.92216206 324.62949657 C1093.64126255 324.59695782 1094.36036304 324.56441906 1095.10125446 324.53089428 C1098.39435002 324.61703084 1098.39435002 324.61703084 1101.11527729 323.15098095 C1101.85847205 320.86112979 1101.85847205 320.86112979 1101.11527729 318.15098095 C1098.77727555 315.81526913 1096.02461217 314.12393216 1093.25590229 312.33848095 C1092.00471607 311.50250378 1092.00471607 311.50250378 1090.72825336 310.64963818 C1087.9512233 308.80015129 1085.1585488 306.97582716 1082.36527729 305.15098095 C1080.40724353 303.85366463 1078.45022704 302.55481178 1076.49418354 301.25449657 C1071.38614704 297.86512163 1066.26464484 294.49673129 1061.13847065 291.13486767 C1056.41213107 288.03333852 1051.69368828 284.91985631 1046.97465229 281.80723095 C1041.52116177 278.21152023 1036.06629514 274.61795449 1030.60648823 271.03184032 C1016.97700773 262.07443815 1003.44339884 252.98163701 989.9380312 243.83848095 C976.39635974 234.67408998 962.78318125 225.62590745 949.11527729 216.65098095 C934.54627886 207.08435753 920.04814981 197.42176432 905.61527729 187.65098095 C889.08147808 176.45881535 872.46236355 165.40387413 855.76517963 154.45688915 C847.43316613 148.99166666 839.12227344 143.50385634 830.89262104 137.88535595 C829.48817595 136.93086908 828.08363807 135.97651874 826.67899799 135.02231884 C824.13183512 133.29142149 821.59734297 131.54392967 819.06913471 129.78550243 C817.95217355 129.02512661 816.83477105 128.26539853 815.71683979 127.5064497 C814.77147358 126.85313671 813.82610737 126.19982372 812.8520937 125.52671337 C809.68349837 123.93393597 807.61203586 124.04470022 804.11527729 124.15098095 C804.11505992 124.74442926 804.11484255 125.33787758 804.1146186 125.94930917 C804.10111226 161.09660547 804.06167791 196.2437791 803.98842167 231.39100291 C803.97965458 235.60811436 803.97110483 239.82522621 803.9626894 244.04233837 C803.96017081 245.3017021 803.96017081 245.3017021 803.95760133 246.58650752 C803.93090791 260.19329196 803.92183458 273.80003428 803.91923586 287.40684221 C803.91617991 301.36143891 803.89427483 315.3159135 803.85475272 329.27045506 C803.83094926 337.88605855 803.82197163 346.50141855 803.83176418 355.11705043 C803.83706667 361.01952339 803.82411409 366.92177751 803.79661439 372.82418815 C803.78127649 376.23324161 803.7741714 379.64180558 803.78868008 383.05087376 C803.80020489 386.74187499 803.78133008 390.43147889 803.75451374 394.12237072 C803.77052363 395.74929764 803.77052363 395.74929764 803.78685695 397.40909177 C803.75032539 400.08618924 803.68781034 402.53599775 803.11527729 405.15098095 C800.03544059 407.9316361 797.47948124 408.52926955 793.39530659 408.65024853 C792.03184353 408.69832401 792.03184353 408.69832401 790.64083576 408.74737072 C789.66689365 408.76325741 788.69295155 408.7791441 787.68949604 408.7955122 C786.15891308 408.82472004 786.15891308 408.82472004 784.59740925 408.85451794 C782.43477765 408.88720968 780.27199627 408.91102578 778.10917377 408.92661572 C774.84985477 408.96295605 771.5975186 409.06878142 768.33988667 409.17637157 C755.11728224 409.41685976 746.57254514 407.84070882 736.12104511 399.68091869 C733.22713265 397.47353165 730.19646056 395.49245259 727.16183186 393.48513317 C724.64801085 391.82013524 722.15137195 390.13194618 719.65824604 388.4361372 C702.89707124 377.04129996 686.05869385 365.77291333 669.11527729 354.65098095 C653.64478178 344.49334408 638.26333095 334.21373404 622.9380312 323.83848095 C609.39635974 314.67408998 595.78318125 305.62590745 582.11527729 296.65098095 C566.64521246 286.49267905 551.26334088 276.21374076 535.9380312 265.83848095 C522.39635974 256.67408998 508.78318125 247.62590745 495.11527729 238.65098095 C479.64521246 228.49267905 464.26334088 218.21374076 448.9380312 207.83848095 C435.39635974 198.67408998 421.78318125 189.62590745 408.11527729 180.65098095 C393.5462779 171.0843569 379.04819274 161.42170169 364.61527729 151.65098095 C353.74344428 144.29180231 342.85731117 136.95735821 331.90043354 129.7251997 C330.97402058 129.11211452 330.04760761 128.49902935 329.09312153 127.86736584 C324.42621319 124.78487943 319.74256871 121.73484155 315.02006245 118.73813915 C306.51448132 113.30501999 298.58265709 107.9269963 291.22855854 100.99473095 C264.99298847 77.29636161 231.24616084 81.83584891 197.98246479 83.11191845 C197.13577732 83.14420229 196.28908985 83.17648613 195.41674519 83.20974827 C193.04306727 83.30728665 190.67091467 83.42103119 188.29838276 83.54307079 C187.59529169 83.57351577 186.89220062 83.60396074 186.16780376 83.63532829 C182.20108973 83.79242823 182.20108973 83.79242823 179.11527729 86.15098095 C178.80200177 88.55728401 178.80200177 88.55728401 180.11527729 91.15098095 C182.62967644 93.42521174 185.46246096 95.16149735 188.32621479 96.96348095 C189.18385426 97.52079906 190.04149372 98.07811718 190.92512226 98.65232372 C192.79013934 99.86202628 194.65964131 101.06483563 196.5330019 102.26157665 C200.55821947 104.83328959 204.56187723 107.43770524 208.56687641 110.04075146 C210.65065005 111.39484979 212.73550546 112.74728477 214.82139301 114.0981245 C224.28815491 120.23556225 233.64569119 126.5266907 242.98032856 132.86265087 C258.28010342 143.24655218 273.65895614 153.50170374 289.11527729 163.65098095 C304.58534212 173.80928285 319.9672137 184.08822114 335.29252338 194.46348095 C348.83419484 203.62787192 362.44737333 212.67605445 376.11527729 221.65098095 C391.58534212 231.80928285 406.9672137 242.08822114 422.29252338 252.46348095 C435.83419484 261.62787192 449.44737333 270.67605445 463.11527729 279.65098095 C478.58534212 289.80928285 493.9672137 300.08822114 509.29252338 310.46348095 C522.83419707 319.62787342 536.44745499 328.67592703 550.11527729 337.65098095 C566.92330022 348.68866367 583.63530095 359.8606909 600.28690815 371.13291454 C602.02523644 372.30956033 603.76359832 373.48615649 605.50199604 374.6626997 C606.33460453 375.22626171 607.16721302 375.78982372 608.02505207 376.37046337 C613.0223866 379.74878882 618.03633607 383.10007847 623.07230854 386.4205122 C623.65578053 386.80586636 624.23925251 387.19122051 624.84040546 387.58825207 C627.42095076 389.29170309 630.00513305 390.98902504 632.5967226 392.67563915 C633.44975971 393.23726757 634.30279682 393.79889599 635.18168354 394.37754345 C635.90299458 394.84756786 636.62430561 395.31759228 637.36747456 395.80185986 C639.11527729 397.15098095 639.11527729 397.15098095 641.11527729 400.15098095 C640.96379312 403.18066428 640.63685141 404.63854581 638.45386046 406.78328657 C635.41291173 408.56175164 633.3397659 408.52918668 629.82294655 408.534091 C627.87036587 408.54767596 627.87036587 408.54767596 625.87833911 408.56153536 C624.4303247 408.55643079 622.98231129 408.55103868 621.5342989 408.54539013 C619.99870583 408.55027729 618.46311643 408.55646628 616.92753333 408.56384802 C612.7011042 408.58029363 608.47486105 408.57792023 604.24841106 408.57247305 C599.69268766 408.56980845 595.13701446 408.5843241 590.58131123 408.59656811 C581.65261529 408.61765014 572.72398425 408.62216131 563.79526637 408.62038022 C556.5376117 408.61907371 549.27997732 408.62287106 542.02232647 408.63030529 C539.933439 408.63240445 537.84455153 408.63450205 535.75566405 408.63659811 C534.19619126 408.6381634 534.19619126 408.6381634 532.60521396 408.63976032 C512.92973827 408.65867468 493.25429984 408.65760914 473.57881882 408.65079099 C455.57905172 408.64521758 437.57942705 408.6660302 419.57969324 408.69915146 C401.1026781 408.73288724 382.62573119 408.74805673 364.14868468 408.74343443 C353.7732925 408.74118925 343.39803187 408.74643973 333.02266598 408.77132702 C324.18751381 408.79233894 315.3525653 408.79593344 306.51740477 408.77702743 C302.0099075 408.767868 297.50278994 408.76673265 292.99532223 408.78738308 C288.86647833 408.80608944 284.73832521 408.80159375 280.60950764 408.77883726 C279.11822425 408.77465053 277.62688795 408.77885412 276.13566051 408.7924332 C267.43778967 408.86622276 261.23949834 408.31786785 254.11527729 403.15098095 C252.69344253 402.22511206 251.27003335 401.30165304 249.84452534 400.3814497 C248.35284554 399.37081188 246.86378249 398.35630385 245.37699604 397.33848095 C244.55560642 396.78116283 243.7342168 396.22384472 242.88793659 395.64963818 C241.11709435 394.44802734 239.34728268 393.24489657 237.57841206 392.04038525 C232.76769555 388.76567902 227.9478692 385.50446033 223.12699604 382.24473095 C221.63303806 381.23448864 221.63303806 381.23448864 220.10889912 380.20383739 C209.8339392 373.26709083 199.4797927 366.45286467 189.11527729 359.65098095 C173.64449854 349.49378211 158.26332423 339.21372949 142.9380312 328.83848095 C129.39635974 319.67408998 115.78318125 310.62590745 102.11527729 301.65098095 C86.6586458 291.50149995 71.28741632 281.23526696 55.9783144 270.86466503 C45.60739306 263.84107285 35.20641682 256.86802897 24.74027729 249.98691845 C23.7209914 249.31674694 22.70170551 248.64657543 21.65153217 247.9560957 C16.71725355 244.71440659 11.77891212 241.47906839 6.83598042 238.25059032 C5.06448367 237.08980192 3.29299865 235.9289956 1.52152729 234.76816845 C0.30602192 233.97809902 0.30602192 233.97809902 -0.93403912 233.1720686 C-2.04948101 232.44015804 -2.04948101 232.44015804 -3.18745708 231.69346142 C-3.83275372 231.27241131 -4.47805035 230.8513612 -5.14290142 230.41755199 C-6.96314927 229.09395282 -8.42151401 227.86507137 -9.88472271 226.15098095 C-10.18623072 223.19929504 -10.30468928 220.45779477 -10.28877544 217.50449657 C-10.29563869 216.62130245 -10.30250195 215.73810833 -10.30957317 214.82815075 C-10.32789737 211.90434799 -10.32399604 208.98107888 -10.31831646 206.05723095 C-10.32287525 204.02846126 -10.32817992 201.99969312 -10.33420086 199.97092724 C-10.34314278 195.71724203 -10.34069616 191.46374446 -10.33076763 187.21006298 C-10.31927105 181.75203777 -10.33949466 176.29465884 -10.36868477 170.83671856 C-10.38700669 166.64689026 -10.38676242 162.45721802 -10.38104725 158.26735973 C-10.38089357 156.25466536 -10.38697598 154.24196072 -10.39933872 152.22930431 C-10.41417297 149.41827539 -10.40362807 146.60845571 -10.38643169 143.79746532 C-10.39609966 142.96204708 -10.40576763 142.12662884 -10.41572857 141.26589489 C-10.34362774 135.65365948 -10.34362774 135.65365948 -8.0235014 133.11222363 C-4.81084276 131.66834138 -3.25090215 132.09695009 0.11527729 133.15098095 C3.0712292 134.76022529 5.80224194 136.64855478 8.56058979 138.57285595 C9.79904148 139.41732281 9.79904148 139.41732281 11.0625124 140.2788496 C12.85335261 141.50135475 14.64100975 142.72853291 16.42582417 143.95981884 C21.2687184 147.30002114 26.1352184 150.60558865 30.99808979 153.91660595 C32.00333698 154.60246777 33.00858418 155.28832958 34.0442934 155.99497509 C44.32372247 162.99907068 54.7126272 169.83188835 65.11527729 176.65098095 C80.58747879 186.80597614 95.96726513 197.08825596 111.29252338 207.46348095 C124.83419484 216.62787192 138.44737333 225.67605445 152.11527729 234.65098095 C167.5792629 244.80529097 182.95560386 255.07946933 198.27439594 265.45139599 C213.91758941 276.03927455 229.65899842 286.47160133 245.46098042 296.82090282 C246.30227497 297.37470623 247.14356953 297.92850964 248.01035786 298.49909496 C249.71912558 299.61640077 251.43588172 300.72157815 253.16013813 301.81482983 C257.89951827 304.85585044 262.22504106 308.03993331 266.46586323 311.75010204 C285.06134522 327.31980211 302.99581707 326.29161979 326.24924946 325.37656689 C331.07967083 325.20703871 335.91154759 325.14437446 340.74418354 325.0689497 C347.75776939 324.94294763 354.7689926 324.7843744 361.77933979 324.53428173 C362.87919964 324.499613 362.87919964 324.499613 364.00127888 324.46424389 C367.34610407 324.61014364 367.34610407 324.61014364 370.11527729 323.15098095 C370.55359833 320.75642832 370.55359833 320.75642832 370.11527729 318.15098095 C368.39802597 316.23603975 368.39802597 316.23603975 365.86527729 314.6626997 C364.85336323 313.9722456 363.84144917 313.2817915 362.79887104 312.57041454 C361.57173801 311.76282398 360.3438127 310.95643655 359.11527729 310.15098095 C357.66830045 309.18749483 356.22170935 308.22342922 354.77543354 307.25889111 C350.51000105 304.4255132 346.22840995 301.61735322 341.94315815 298.81406689 C325.74932611 288.21670464 309.63924302 277.50328347 293.61527729 266.65098095 C279.18300616 256.87932327 264.68426156 247.21759507 250.11527729 237.65098095 C234.64521246 227.49267905 219.26334088 217.21374076 203.9380312 206.83848095 C190.39635974 197.67408998 176.78318125 188.62590745 163.11527729 179.65098095 C147.64521246 169.49267905 132.26334088 159.21374076 116.9380312 148.83848095 C102.49264945 139.06249972 87.95977132 129.42753017 73.37919331 119.85459423 C57.4731926 109.40797097 41.67126265 98.81361635 25.92387104 88.12949657 C24.2586716 87.00099764 22.59330991 85.87273808 20.92777729 84.74473095 C20.12799458 84.20255932 19.32821186 83.66038769 18.50419331 83.10178661 C14.18490866 80.18486428 9.84012509 77.31418224 5.45902729 74.4908247 C4.53372211 73.89451244 3.60841694 73.29820019 2.65507221 72.68381786 C0.87173979 71.53848455 -0.91445037 70.39758555 -2.70381451 69.26169872 C-3.4995689 68.75143139 -4.2953233 68.24116405 -5.11519146 67.71543407 C-5.82055035 67.26720287 -6.52590923 66.81897167 -7.25264263 66.35715771 C-8.88472271 65.15098095 -8.88472271 65.15098095 -9.88472271 63.15098095 C-9.98597959 61.28794919 -10.02311255 59.42129072 -10.02998638 57.55552197 C-10.03636623 56.38413174 -10.04274609 55.21274151 -10.04931927 54.00585461 C-10.05043209 52.73503536 -10.05154491 51.46421612 -10.05269146 50.1548872 C-10.05601986 48.85526546 -10.05934826 47.55564373 -10.06277752 46.21663952 C-10.06876904 43.46354371 -10.07061739 40.7104793 -10.07002544 37.95737743 C-10.06992381 34.42873035 -10.08357736 30.90028442 -10.10079765 27.37168503 C-10.11458672 24.00774919 -10.11400626 20.64385096 -10.11519146 17.2798872 C-10.12237698 16.01109219 -10.12956249 14.74229717 -10.13696575 13.43505383 C-10.13388912 12.26051144 -10.13081249 11.08596905 -10.12764263 9.87583447 C-10.12906765 8.84040005 -10.13049267 7.80496563 -10.13196087 6.73815441 C-9.88472271 4.15098095 -9.88472271 4.15098095 -7.88472271 1.15098095 C-4.95477711 0.17433242 -3.05271646 0.01754276 0 0 Z " fill="#FFFFFF" transform="translate(42.88472270965576,49.849019050598145)"/>
<path d="M0 0 C1.07791809 -0.00997513 2.15583618 -0.01995026 3.26641846 -0.03022766 C4.44414322 -0.03089233 5.62186798 -0.03155701 6.83528137 -0.03224182 C8.07961945 -0.04056534 9.32395752 -0.04888885 10.60600281 -0.0574646 C14.0174873 -0.07743821 17.42872766 -0.08820695 20.84024978 -0.09329104 C22.97442606 -0.09693781 25.10857899 -0.10317967 27.24274635 -0.11029243 C34.69661613 -0.13478632 42.15041638 -0.14783771 49.60432434 -0.15138245 C56.53788435 -0.15501287 63.47100039 -0.18487251 70.40442485 -0.22678703 C76.36724482 -0.26156213 82.32991825 -0.27693216 88.29283887 -0.27762848 C91.84961889 -0.27841916 95.40594699 -0.28705935 98.96262169 -0.31562614 C102.93597176 -0.34682526 106.90869239 -0.33771257 110.88215637 -0.32521057 C112.63356178 -0.34746201 112.63356178 -0.34746201 114.42034912 -0.37016296 C121.81985967 -0.30400451 126.60911457 1.06041563 132.6822052 5.27415466 C133.42369906 5.75500047 134.16519293 6.23584627 134.9291563 6.73126316 C137.1167664 8.14991523 139.26902031 9.61380595 141.42048645 11.08665466 C142.65257088 11.92263184 142.65257088 11.92263184 143.9095459 12.77549744 C145.68038814 13.97710827 147.45019981 15.18023904 149.21907043 16.38475037 C154.02978694 19.65945659 158.84961329 22.92067528 163.67048645 26.18040466 C165.16444443 27.19064697 165.16444443 27.19064697 166.68858337 28.22129822 C176.9635388 35.15804175 187.31752751 41.97252418 197.6822052 48.77415466 C214.76805311 59.98959658 231.74798196 71.35393977 248.66462708 82.82298279 C250.35919731 83.97090392 252.05385552 85.1186952 253.74861145 86.26634216 C254.54304657 86.80494873 255.33748169 87.3435553 256.1559906 87.89848328 C261.32127584 91.38906504 266.53702204 94.76516761 271.86164856 98.00901794 C273.6822052 99.27415466 273.6822052 99.27415466 274.6822052 101.27415466 C274.78598329 104.13167022 274.8290097 106.96500546 274.82746887 109.82298279 C274.83250679 111.14996437 274.83250679 111.14996437 274.83764648 112.50375366 C274.84717125 115.43765148 274.84910025 118.37149234 274.85017395 121.30540466 C274.85338506 123.33799768 274.85674901 125.37059046 274.86026001 127.40318298 C274.86625481 131.66698238 274.86809951 135.9307615 274.86750793 140.19456482 C274.8674062 145.66934199 274.88106878 151.1439898 274.89828014 156.61873627 C274.90937439 160.81706851 274.91142795 165.0153692 274.91089821 169.2137146 C274.91208182 171.23281297 274.9165248 173.25191208 274.92423058 175.27099609 C274.93398026 178.08919969 274.93117261 180.90711878 274.92512512 183.72532654 C274.93074463 184.5659111 274.93636414 185.40649567 274.94215393 186.27255249 C274.91052167 192.04583819 274.91052167 192.04583819 272.6822052 194.27415466 C265.92968636 195.27931287 262.21065323 192.60626519 256.8853302 188.94993591 C256.03618042 188.38554306 255.18703064 187.82115021 254.31214905 187.23965454 C251.50834624 185.37048961 248.72054096 183.47879875 245.9322052 181.58665466 C243.95722175 180.2636537 241.98129427 178.94206099 240.00447083 177.62181091 C234.88180528 174.1944639 229.77250612 170.7477735 224.6678009 167.29374695 C220.92221836 164.76006511 217.17247682 162.23258417 213.42262268 159.70523071 C207.22359289 155.52714944 201.02645882 151.34630545 194.83552551 147.15623474 C182.18154047 138.59726501 169.45191958 130.15929172 156.6822052 121.77415466 C141.21214037 111.61585276 125.83026879 101.33691448 110.50495911 90.96165466 C96.96328715 81.79726336 83.35010196 72.74909357 69.6822052 63.77415466 C50.11268006 50.9238822 30.67831961 37.879943 11.29988098 24.7434845 C7.84899899 22.40591195 4.39428806 20.07601968 0.91267395 17.78440857 C-0.16369324 17.07590759 -1.24006042 16.36740662 -2.3490448 15.63743591 C-3.25203308 15.04873718 -4.15502136 14.46003845 -5.08537292 13.85350037 C-7.1008383 12.42764237 -8.79536575 11.21638036 -10.3177948 9.27415466 C-10.2552948 5.71165466 -10.2552948 5.71165466 -9.3177948 2.27415466 C-6.27548253 0.16331096 -3.63798792 0.01807697 0 0 Z " fill="#FFFFFF" transform="translate(449.3177947998047,49.72584533691406)"/>
</svg>
